PathFileType	4	(X/Y/Z)	C:/Users/beibeiliu/ov580/test_trc/User3\sequence.7_training_dense_right.trc
DataRate	CameraRate	NumFrames	NumMarkers	Units	OrigDataRate	OrigDataStartFrame	OrigNumFrames
120	120	10	19	mm	120	1	80
Frame#	Time	ThumbCMC			ThumbMCP			ThumbIP			ThumbTip			IndexMCP			IndexPIP			IndexTip			MiddleMCP			MiddlePIP			MiddleTip			RingMCP			RingPIP			RingTip			PinkyMCP			PinkyPIP			PinkyTip			BackHand1			BackHand2			BackHand3	
		X0	Y0	Z0	X1	Y1	Z1	X2	Y2	Z2	X3	Y3	Z3	X4	Y4	Z4	X5	Y5	Z5	X6	Y6	Z6	X7	Y7	Z7	X8	Y8	Z8	X9	Y9	Z9	X10	Y10	Z10	X11	Y11	Z11	X12	Y12	Z12	X13	Y13	Z13	X14	Y14	Z14	X15	Y15	Z15	X16	Y16	Z16	X17	Y17	Z17	X18	Y18	Z18	
0	0	117.415	34.8833	-11.1573	95.3192	22.1379	-34.3251	83.4061	11.4431	-60.2814	78.2706	1.42322	-80.1155	125.272	47.8286	-88.4147	116.963	40.1588	-116.404	108.501	35.0587	-135.936	153.948	46.8048	-95.1483	147.407	39.214	-122.651	146.511	23.7975	-151.833	170.295	39.2032	-88.3	170.831	32.73	-114.542	173.156	19.8001	-139.957	189.687	29.8567	-73.0423	197.585	22.5806	-94.7331	203.48	11.2303	-113.399	173.017	53.2808	-37.0486	174.732	57.4918	-5.96077	141.742	59.8364	-20.5752	
1	0.00833333	117.955	34.563	-17.1307	102.319	21.5406	-34.5017	88.6594	10.6502	-63.129	79.3595	-0.747594	-79.141	128.585	47.3761	-89.1609	118.393	42.2387	-116.954	115.625	33.7986	-140.919	153.259	47.2562	-94.8387	149.574	38.132	-127.043	149.15	24.3899	-154.583	171.107	40.3513	-91.0805	178.577	33.6692	-112.124	175.474	21.7924	-140.145	192.245	30.5296	-72.8033	201.291	23.7419	-96.308	202.657	12.164	-117.127	175.385	53.2559	-37.5096	177.245	56.7562	-6.94704	143.645	60.7807	-24.5907	
2	0.0166667	119.135	34.0393	-12.6931	105.096	20.5924	-37.9458	89.9604	9.65945	-63.2781	85.5139	-0.57419	-81.8595	131.672	47.2935	-90.4048	121.103	42.6725	-113.913	119.805	35.055	-138.743	155.805	46.7157	-100.488	152.163	38.4904	-127.075	152.572	23.7055	-156.222	176.58	40.4382	-90.2088	177	34.7575	-112.429	178.826	22.2893	-139.156	195.191	32.6931	-74.5869	203.634	24.6798	-94.0438	206.465	15.4691	-114.212	178.622	53.7994	-38.9197	182.369	57.4806	-9.95381	147.813	60.8621	-23.6137	
3	0.025	118.966	34.157	-16.3135	103.251	20.6152	-35.9905	91.7539	9.63577	-65.4925	84.667	-2.01316	-83.5141	130.633	48.5077	-88.9652	121.879	41.7131	-118.693	121.844	34.2152	-141.098	160.721	47.8105	-99.0122	156.928	38.1358	-128.56	155.79	23.1418	-154.412	175.792	42.7597	-92.4368	178.964	35.1805	-117.23	177.998	22.2574	-140.192	195.845	33.8524	-74.0671	202.986	27.0166	-93.2565	207.663	14.2403	-118.497	176.785	56.7939	-39.2984	181.452	56.1088	-7.45956	144.76	60.5385	-27.4111	
4	0.0333333	118.19	35.8545	-18.1241	104.918	21.7108	-37.8044	91.6808	10.9505	-64.7668	86.1671	-0.679703	-85.1138	132.467	50.4479	-93.2871	122.689	44.2134	-116.89	123.183	31.8199	-140.568	156.084	50.8022	-95.8904	154.123	38.4517	-128.631	151.578	22.3895	-152.639	175.328	43.4476	-87.882	175.442	35.0413	-118.336	176.704	19.5116	-141.66	196.927	34.384	-72.2942	202.23	27.2522	-99.3021	204.159	11.8855	-118.941	177.724	57.0875	-36.1808	184.78	58.5261	-7.60254	150.447	61.2264	-23.505	
5	0.0416667	119.941	37.019	-19.4333	108.414	23.5127	-39.2974	95.2995	13.0314	-61.7043	88.2277	3.01705	-82.9034	131.522	51.9644	-91.67	129.248	41.8243	-120.016	119.935	23.8023	-141.034	158.883	52.3052	-96.2194	156.172	39.7928	-126.097	149.337	16.0427	-147.358	174.483	45.3973	-91.4661	178.476	35.266	-116.334	172.795	14.7928	-134.936	198.109	35.8746	-76.4127	199.201	28.7106	-97.3551	199.925	6.80368	-119.636	182.993	57.1865	-38.7285	183.108	58.3619	-10.1641	151.312	63.0707	-26.9928	
6	0.05	124.164	38.0094	-17.7634	106.888	25.8635	-37.656	92.6879	15.9561	-64.3736	86.7543	5.13511	-82.8376	135.283	51.929	-91.5214	127.023	37.4272	-118.896	128.542	13.6431	-133.405	156.524	53.0317	-96.7583	152.843	35.5308	-124.285	147.727	2.73512	-137.449	179.154	45.5994	-91.2703	178.65	30.5779	-115.483	172.93	3.81765	-126.886	195.31	36.7582	-73.6892	199.187	23.277	-99.3658	191.046	-1.21601	-113.219	181.352	59.9949	-35.1402	182.697	59.2191	-7.11401	150.885	64.3214	-25.2213	
7	0.0583333	124.781	39.3927	-12.9145	109.303	28.0014	-37.8961	96.2812	18.7556	-63.602	89.7226	9.19365	-85.4909	135.837	52.2211	-91.7881	132.368	29.8455	-116.768	127.46	0.696136	-122.232	159.285	49.8908	-98.1134	152.398	27.2996	-121.364	149.049	-12.0325	-118.615	180.45	42.5441	-91.734	178.448	21.8905	-112.984	166.655	-5.58629	-112.606	195.885	36.2434	-72.9304	194.481	22.4675	-96.9819	184.71	-7.69518	-102.596	183.032	61.7447	-39.2093	185.898	60.0817	-4.93826	151.133	66.5619	-21.536	
8	0.0666667	128.729	40.8033	-18.3562	110.465	29.2922	-38.0771	99.2991	20.9035	-62.4552	91.135	10.8086	-83.9776	139.037	49.0852	-92.8996	131.005	25.4883	-113.61	127.93	-2.63241	-107.559	161.065	46.8218	-97.4902	152.289	16.4065	-115.641	145.878	-11.2944	-98.7491	178.334	40.5072	-88.5257	174.21	15.4227	-107.335	162.726	-13.8365	-89.5854	196.421	32.2813	-76.5368	187.965	12.1903	-94.8813	179.967	-13.267	-84.0916	189.079	59.9823	-38.732	190.813	58.2854	-8.89178	156.553	65.3075	-21.5129	
9	0.075	126.929	42.3839	-14.566	111.054	29.6907	-39.8971	98.3062	22.447	-63.5642	91.2928	13.2279	-87.1264	141.471	47.3513	-93.4706	128.825	23.1206	-108.42	127.147	-4.79888	-87.4733	157.848	41.9473	-99.7665	150.485	8.96892	-106.941	144.466	-9.08479	-76.959	178.797	34.3173	-88.7372	170.023	6.00406	-99.1325	158.997	-9.72102	-70.3747	197.497	25.6252	-78.1789	184.714	2.37243	-88.4478	170.281	-11.8567	-66.3842	185.007	57.8982	-37.4488	191.481	56.6587	-10.8165	160.05	66.7011	-21.7051	
